<?xml version="1.0" encoding="UTF-8"?>
<svg width="68px" height="20px" viewBox="0 0 68 20" version="1.1" xmlns="http://www.w3.org/2000/svg" xmlns:xlink="http://www.w3.org/1999/xlink">
    <!-- Generator: Sketch 40.3 (33839) - http://www.bohemiancoding.com/sketch -->
    <title>Group 40</title>
    <desc>Created with Sketch.</desc>
    <defs></defs>
    <g id="Final" stroke="none" stroke-width="1" fill="none" fill-rule="evenodd">
        <g id="Desktop-Landscape" transform="translate(-130.000000, -62.000000)" fill="#FEFEFE">
            <g id="Group-40" transform="translate(130.000000, 62.000000)">
                <g id="Logo-/-ALTR-v2-/-White">
                    <g id="Group-2">
                        <polygon id="Fill-10" points="195.9662 69.6105 155.8352 0.1015 147.2052 0.1015 134.7822 0.1015 103.3952 0.1015 113.9212 18.3335 145.3082 18.3335 174.9142 69.6105"></polygon>
                        <polygon id="Fill-12" points="143.3221 51.3596 111.9291 51.3596 82.3241 -0.0004 61.2721 -0.0004 101.4031 69.5916 109.4941 69.5916 122.4551 69.5916 153.8481 69.5916"></polygon>
                        <path d="M187.3898,18.3319 L209.5848,18.3319 C214.5908,18.3319 218.6638,22.4049 218.6638,27.4109 C218.6638,32.3099 214.7598,36.3049 209.9018,36.4739 L197.8458,36.4739 L208.4548,54.7219 L216.9688,69.6119 L238.1148,69.6119 L226.2248,49.0459 C232.7078,44.0469 236.8958,36.2109 236.8958,27.4109 C236.8958,12.3519 224.6438,0.0999 209.5848,0.0999 L176.8628,0.0999 L187.3898,18.3319 Z" id="Fill-14"></path>
                        <polygon id="Fill-16" points="80.065 69.6317 40.238 -0.0003 29.52 18.5357 59.013 69.6317"></polygon>
                        <polygon id="Fill-18" points="21.0522 69.6105 29.5202 54.9675 18.9942 36.7365 0.0002 69.6105"></polygon>
                    </g>
                </g>
            </g>
        </g>
    </g>
</svg>